# This file uses centimeters as units for non-parametric coordinates.

mtllib fem.mtl
g default
v -3.581377 149.574889 -4.457829
v -4.930047 147.722978 -1.023849
v -3.952527 145.884863 4.779746
v -3.163641 145.911088 7.680575
v -6.500021 164.003361 -2.409534
v -4.326706 162.115354 -6.321689
v -5.482409 162.765558 8.730664
v -6.942540 164.231472 5.392578
v 4.440834 162.193253 -6.470890
v 6.588782 164.068187 -2.513838
v 5.780838 162.812771 8.755111
v 7.186864 164.296472 5.432255
v 4.914271 147.587098 -1.064371
v 3.663290 149.499509 -4.577690
v 3.165852 145.830980 7.769370
v 3.851642 145.623657 4.889765
v -6.450972 157.032411 9.314374
v 6.800765 156.977429 9.325639
v 8.948075 157.122096 5.402794
v 8.427204 157.704741 -2.703205
v 5.292899 157.868962 -7.408215
v -5.101138 157.828232 -7.151481
v -8.247098 157.711652 -2.401338
v -8.658342 157.194717 5.349031
v -0.013797 143.935084 5.238044
v -0.014825 145.716637 -1.482962
v 0.037785 162.997686 -7.187983
v 0.033737 148.919007 -5.472384
v 0.060486 164.032372 9.651095
v 0.006446 144.851637 8.781721
v 0.042949 167.011320 5.820972
v 0.016267 166.664969 -2.959098
v 0.062368 157.039925 10.745880
v 0.050468 157.941075 -8.529241
v 0.043210 150.605383 10.301404
v 5.819563 150.854107 8.646510
v 7.715141 151.166183 4.887957
v 7.925534 152.203535 -1.957570
v 4.970127 152.924029 -6.395356
v 0.038559 153.050413 -7.572998
v -4.837945 152.963889 -6.230553
v -7.818997 152.288626 -1.861798
v -7.587892 151.292085 4.870139
v -5.616511 150.901896 8.690834
v 4.544070 146.487317 1.963323
v 1.894879 144.274979 5.111191
v -4.619294 146.707874 1.921002
v -2.613140 146.289491 -1.236777
v -2.518141 162.710362 -6.900767
v 4.963740 160.417191 -7.096773
v 2.120375 149.099114 -5.105336
v -4.227471 150.930036 -5.233678
v 4.378113 147.685516 8.146240
v 3.562300 163.744070 9.326280
v -6.226436 160.467806 9.108888
v -1.731566 145.029574 8.307348
v -3.879806 166.291013 5.638094
v 7.135476 164.407453 1.520789
v 3.676384 165.989853 -2.759712
v -6.978916 164.346283 1.547000
v -4.377857 148.730502 -3.115267
v 4.426031 148.632807 -3.221540
v -5.957974 148.358167 4.739042
v -3.436672 145.453716 6.613021
v 3.373197 145.286266 6.743823
v -5.449860 163.128785 -5.024481
v 5.539377 163.211103 -5.168408
v -7.845215 161.008569 -2.383563
v -6.446887 163.732980 7.674653
v 6.750346 163.802829 7.717345
v 8.639287 160.885185 5.420901
v 6.721265 149.690116 -1.398318
v -6.291259 153.922712 9.133808
v 6.578560 160.476164 9.133017
v -3.551120 157.035706 10.350206
v 8.677406 154.020662 5.155812
v 8.371973 156.996301 7.857589
v 7.989590 161.047679 -2.611600
v 8.991574 157.414041 1.421768
v 5.292057 155.315684 -7.122873
v 7.179697 157.826772 -5.589825
v -4.805270 160.340820 -6.881249
v 2.810654 157.920127 -8.328515
v -8.289483 154.862798 -2.220240
v -6.992418 157.801283 -5.260903
v -8.346153 160.882667 5.366643
v -8.768283 157.459218 1.543048
v -8.019643 157.068936 7.793391
v -1.967034 144.441102 5.036817
v 2.581609 146.205886 -1.259026
v 2.608880 162.768611 -6.988188
v -2.041812 149.148952 -5.020034
v -3.355160 163.699897 9.314973
v 1.732598 145.000067 8.382364
v 4.026629 166.342499 5.658984
v -3.627697 165.945814 -2.721876
v 3.771947 157.006239 10.346382
v -2.670153 157.892629 -8.188913
v -0.019684 144.594154 1.908700
v 0.047395 160.530824 -8.159863
v 0.063641 160.753095 10.429953
v 0.026537 167.255556 1.460445
v 0.009363 147.178278 -3.841771
v -0.005751 143.863748 7.410448
v 0.023713 165.144033 -5.648150
v 0.053927 166.027704 8.332975
v 0.055647 153.742981 10.675223
v 0.044927 155.426036 -8.261570
v 0.024788 147.370225 9.707815
v 6.587440 153.860753 9.101561
v 3.235600 150.694546 9.803420
v 5.949141 148.143946 4.807303
v 7.133305 150.956543 7.133815
v 8.450015 154.815880 -2.438867
v 8.103386 151.647369 1.531446
v 4.336026 150.860643 -5.380284
v 6.809080 152.638097 -4.600674
v 0.039149 150.878885 -6.679696
v 2.624774 153.034273 -7.339152
v -5.120599 155.316260 -6.902204
v -2.522981 153.053989 -7.237838
v -6.682258 149.815697 -1.347580
v -6.684431 152.698959 -4.448039
v -8.446802 154.117727 5.128503
v -7.998199 151.762342 1.556650
v -4.295943 147.733131 8.109106
v -6.953934 151.049911 7.141643
v -3.095812 150.714101 9.837315
v 2.319167 145.048084 1.964815
v -8.401015 161.046915 1.557887
v -2.507953 160.397127 -7.845103
v 3.648742 160.613558 10.068493
v -3.899730 166.473531 1.496608
v 8.608494 161.063001 1.474837
v -2.337938 147.599809 -3.447844
v -6.615495 160.658923 -5.128672
v -1.674731 144.200442 7.037587
v -7.743889 160.624568 7.713674
v -3.029278 164.625692 -5.357011
v -3.602355 165.480406 8.042240
v 6.762185 160.725249 -5.390530
v 8.102358 160.628131 7.778723
v 3.658356 153.784394 10.216305
v 8.088945 153.892094 7.564016
v 8.867355 154.388724 1.428978
v 7.216614 155.121768 -5.269975
v -2.676179 155.403547 -7.931080
v -7.046862 155.140961 -5.012495
v -8.682976 154.466904 1.516287
v -7.800423 153.979743 7.547933
v -2.384671 145.187031 1.935123
v 2.631718 160.444957 -7.965150
v -3.426006 160.607584 10.062198
v 3.989882 166.519258 1.492248
v 2.364379 147.540166 -3.508959
v 1.626572 144.094818 7.129438
v 3.086576 164.678276 -5.419782
v 3.786182 165.535575 8.063383
v -3.466730 153.816446 10.245312
v 2.801250 155.406923 -8.056119
v 2.431311 147.483215 9.232894
v 5.385081 147.830732 6.802830
v 6.567217 148.850323 1.764201
v 5.893242 150.403619 -3.751647
v 2.302494 150.931067 -6.368808
v -2.207509 150.968075 -6.275425
v -5.810726 150.496183 -3.632139
v -6.567054 149.037810 1.743207
v -5.347878 147.972385 6.738876
v -2.361342 147.492953 9.215980
vt 0.719979 0.441237
vt 0.656716 0.449030
vt 0.654035 0.382027
vt 0.717734 0.386153
vt 0.866005 0.370403
vt 0.871012 0.443942
vt 0.762660 0.444464
vt 0.759653 0.379961
vt 0.826795 0.196705
vt 0.844947 0.320115
vt 0.768726 0.329124
vt 0.759648 0.205021
vt 0.978410 0.348840
vt 0.987749 0.442015
vt 0.953761 0.332461
vt 0.900147 0.365834
vt 0.837443 0.232820
vt 0.796629 0.235679
vt 0.661987 0.206230
vt 0.743542 0.182967
vt 0.631036 0.240934
vt 0.631821 0.355026
vt 0.655504 0.415316
vt 0.864834 0.229920
vt 0.729779 0.245761
vt 0.756942 0.242520
vt 0.829273 0.409334
vt 0.985884 0.315781
vt 0.665728 0.364608
vt 0.753520 0.355940
vt 0.801639 0.280631
vt 0.865897 0.342750
vt 0.907131 0.442629
vt 0.959502 0.204751
vt 0.932651 0.232719
vt 0.981801 0.395193
vt 0.663201 0.263218
vt 0.616292 0.275966
vt 0.922925 0.177617
vt 0.838242 0.171341
vt 0.760386 0.285782
vt 0.792228 0.373859
vt 0.843542 0.275900
vt 0.796969 0.410809
vt 0.871024 0.275693
vt 0.943092 0.274944
vt 0.830441 0.453737
vt 0.991080 0.271989
vt 0.825361 0.365045
vt 0.616091 0.314693
vt 0.662515 0.306819
vt 0.733627 0.291737
vt 0.790154 0.174824
vt 0.723739 0.413633
vt 0.867633 0.407230
vt 0.902308 0.404513
vt 0.765014 0.412251
vt 0.810576 0.360667
vt 0.807430 0.332420
vt 0.795781 0.448524
vt 0.792420 0.196184
vt 0.981023 0.234587
vt 0.690845 0.429778
vt 0.703988 0.328150
vt 0.847370 0.388010
vt 0.827779 0.304193
vt 0.937928 0.378988
vt 0.907864 0.304895
vt 0.743991 0.397984
vt 0.642098 0.335019
vt 0.769602 0.187668
vt 0.753162 0.315768
vt 0.881931 0.387358
vt 0.783253 0.348042
vt 0.970176 0.298106
vt 0.857374 0.303462
vt 0.821600 0.255079
vt 0.852369 0.252655
vt 0.902133 0.252795
vt 0.964979 0.253580
vt 0.810872 0.389760
vt 0.636351 0.290898
vt 0.697757 0.276255
vt 0.746883 0.265181
vt 0.689614 0.399256
vt 0.849892 0.428568
vt 0.781628 0.309668
vt 0.942009 0.421480
vt 0.745304 0.427881
vt 0.813227 0.182239
vt 0.884929 0.424942
vt 0.834742 0.341977
vt 0.776792 0.260441
vt 0.813031 0.430600
vt 0.815573 0.212707
vt 0.842814 0.206664
vt 0.889476 0.203943
vt 0.950321 0.213126
vt 0.780959 0.428985
vt 0.779319 0.394193
vt 0.641896 0.247579
vt 0.699964 0.225541
vt 0.746426 0.218378
vt 0.773571 0.217885
vt 0.688347 0.445134
vt 0.656110 0.432173
vt 0.691786 0.414469
vt 0.721828 0.428106
vt 0.699612 0.299115
vt 0.738156 0.321541
vt 0.709624 0.360274
vt 0.666641 0.333381
vt 0.866381 0.388221
vt 0.848845 0.408293
vt 0.827875 0.388074
vt 0.845683 0.367724
vt 0.846732 0.301645
vt 0.831254 0.327665
vt 0.804686 0.307926
vt 0.824500 0.277888
vt 0.980106 0.372017
vt 0.938273 0.400436
vt 0.902840 0.384566
vt 0.939278 0.357337
vt 0.905449 0.275514
vt 0.945445 0.301914
vt 0.909829 0.337606
vt 0.873239 0.305820
vt 0.738693 0.383057
vt 0.762589 0.396109
vt 0.746968 0.412922
vt 0.720630 0.399230
vt 0.623956 0.334860
vt 0.637323 0.311589
vt 0.648775 0.359817
vt 0.753111 0.197415
vt 0.766848 0.178896
vt 0.791206 0.184242
vt 0.771972 0.199609
vt 0.749573 0.287943
vt 0.762992 0.311565
vt 0.762704 0.339015
vt 0.883076 0.368118
vt 0.882108 0.406374
vt 0.783449 0.333318
vt 0.809151 0.347485
vt 0.782048 0.358304
vt 0.969053 0.273968
vt 0.988482 0.293885
vt 0.969823 0.324121
vt 0.854720 0.275495
vt 0.853119 0.328357
vt 0.840680 0.253730
vt 0.799009 0.257162
vt 0.818738 0.233955
vt 0.848881 0.231020
vt 0.868806 0.252221
vt 0.897086 0.230888
vt 0.938731 0.253530
vt 0.958539 0.234211
vt 0.986052 0.253288
vt 0.812451 0.410124
vt 0.795106 0.392117
vt 0.808794 0.369452
vt 0.638203 0.270408
vt 0.661783 0.285022
vt 0.616192 0.295330
vt 0.730662 0.268381
vt 0.698012 0.253691
vt 0.745648 0.243364
vt 0.758299 0.263564
vt 0.654770 0.398672
vt 0.685884 0.384090
vt 0.869012 0.426141
vt 0.850727 0.448839
vt 0.830316 0.430596
vt 0.779005 0.283304
vt 0.984775 0.418604
vt 0.947440 0.442322
vt 0.906356 0.423784
vt 0.764079 0.428407
vt 0.741320 0.442850
vt 0.814198 0.173082
vt 0.831740 0.187700
vt 0.813329 0.194434
vt 0.889072 0.443286
vt 0.838237 0.351709
vt 0.774983 0.239246
vt 0.813111 0.451130
vt 0.796943 0.429691
vt 0.833125 0.210856
vt 0.794331 0.214341
vt 0.857358 0.203302
vt 0.880584 0.174479
vt 0.925139 0.207559
vt 0.970263 0.219669
vt 0.941214 0.191184
vt 0.781419 0.411533
vt 0.779221 0.446494
vt 0.775941 0.376910
vt 0.665530 0.236634
vt 0.623664 0.258450
vt 0.646511 0.223582
vt 0.702765 0.194599
vt 0.731497 0.218167
vt 0.756525 0.220257
vn 0.660224 -0.740973 -0.122731
vn 0.677334 -0.735512 -0.015532
vn 0.367120 -0.922741 -0.117349
vn 0.368764 -0.901335 -0.227176
vn -0.031699 -0.988717 -0.146406
vn -0.025203 -0.964219 -0.263905
vn -0.018508 -0.911130 -0.411702
vn 0.358162 -0.855611 -0.373698
vn 0.624463 -0.725001 -0.290549
vn -0.998055 0.042628 -0.045492
vn -0.992061 0.017766 0.124498
vn -0.964163 0.237595 0.118059
vn -0.966278 0.251739 -0.054159
vn -0.761925 0.635046 0.127230
vn -0.764496 0.642278 -0.055005
vn -0.737910 0.623095 -0.259311
vn -0.932903 0.258750 -0.250481
vn -0.967084 0.058538 -0.247631
vn -0.247777 0.472105 -0.846005
vn -0.018852 0.495222 -0.868562
vn -0.023472 0.259633 -0.965422
vn -0.245812 0.245918 -0.937604
vn -0.024067 0.019268 -0.999525
vn -0.256412 0.022631 -0.966303
vn -0.556842 0.033650 -0.829936
vn -0.534218 0.227136 -0.814261
vn -0.468430 0.409928 -0.782644
vn 0.463200 0.149399 0.873571
vn 0.420811 0.330941 0.844628
vn 0.203833 0.371500 0.905782
vn 0.194908 0.147923 0.969603
vn -0.003385 0.378129 0.925747
vn -0.000676 0.154532 0.987988
vn 0.001207 0.029741 0.999557
vn 0.210919 0.018805 0.977323
vn 0.482328 -0.001829 0.875989
vn -0.365447 0.918515 0.150928
vn -0.006309 0.986323 0.164706
vn -0.005928 0.999093 -0.042174
vn -0.376010 0.925452 -0.046427
vn -0.007389 0.961875 -0.273389
vn -0.372352 0.888667 -0.267629
vn 0.997532 0.039017 -0.058376
vn 0.966880 0.058767 -0.248374
vn 0.928784 0.272471 -0.251236
vn 0.963954 0.257171 -0.068237
vn 0.728216 0.634579 -0.258866
vn 0.757611 0.649336 -0.066239
vn 0.757068 0.643977 0.110186
vn 0.966131 0.240069 0.094649
vn 0.994811 0.010183 0.101225
vn -0.537596 -0.656571 -0.529061
vn -0.437497 -0.590585 -0.678090
vn -0.295098 -0.604829 -0.739662
vn -0.342772 -0.738476 -0.580655
vn -0.020301 -0.621215 -0.783377
vn -0.017335 -0.784168 -0.620307
vn -0.384077 -0.845803 -0.370271
vn -0.634968 -0.715225 -0.292008
vn -0.830877 0.051705 -0.554049
vn -0.804212 0.242936 -0.542425
vn -0.636816 0.537050 -0.553211
vn -0.690813 -0.700945 0.177352
vn -0.689614 -0.724043 -0.013899
vn -0.404323 -0.907158 -0.116562
vn -0.408587 -0.895436 0.176780
vn -0.032381 -0.966557 0.254401
vn -0.017331 -0.524387 0.851304
vn -0.375489 -0.547473 0.747851
vn -0.610230 -0.541869 0.577926
vn -0.874171 -0.000250 0.485618
vn -0.857976 0.202558 0.472068
vn -0.500762 0.008362 0.865545
vn -0.481981 0.151715 0.862946
vn -0.440585 0.329765 0.834949
vn -0.684876 0.556378 0.470519
vn -0.323188 0.731064 -0.600911
vn -0.012178 0.777355 -0.628944
vn -0.216429 0.372664 0.902375
vn -0.314127 0.774611 0.548910
vn -0.006715 0.805925 0.591980
vn 0.829088 0.053343 -0.556568
vn 0.798219 0.267741 -0.539594
vn 0.531108 0.033790 -0.846630
vn 0.507090 0.249337 -0.825040
vn 0.441778 0.438141 -0.782857
vn 0.622672 0.561146 -0.545338
vn 0.877710 -0.011825 0.479047
vn 0.861886 0.205180 0.463738
vn 0.678717 0.569022 0.464282
vn 0.515239 -0.165807 0.840855
vn 0.238188 -0.106228 0.965392
vn 0.003130 -0.079605 0.996822
vn 0.002586 -0.165322 0.986236
vn 0.281131 -0.206014 0.937296
vn 0.554887 -0.306077 0.773574
vn 0.869462 -0.216316 0.444121
vn 0.832659 -0.403599 0.379192
vn 0.907329 -0.407570 0.103151
vn 0.975391 -0.192011 0.108369
vn 0.987862 -0.149383 -0.042585
vn 0.925604 -0.377328 -0.029688
vn 0.903784 -0.355019 -0.239031
vn 0.960828 -0.127730 -0.245954
vn 0.814404 -0.158122 -0.558340
vn 0.751263 -0.371640 -0.545424
vn 0.487822 -0.384701 -0.783603
vn 0.520053 -0.193959 -0.831820
vn -0.022061 -0.192278 -0.981093
vn -0.250333 -0.189480 -0.949437
vn -0.020605 -0.340708 -0.939943
vn -0.252023 -0.355897 -0.899901
vn -0.504927 -0.370402 -0.779648
vn -0.543708 -0.174506 -0.820932
vn -0.754250 -0.351181 -0.554779
vn -0.910247 -0.334401 -0.244186
vn -0.962916 -0.108415 -0.247062
vn -0.817537 -0.134542 -0.559938
vn -0.976750 -0.170818 0.129542
vn -0.990863 -0.131143 -0.031483
vn -0.934260 -0.355934 -0.021663
vn -0.915502 -0.384298 0.119042
vn -0.838987 -0.379905 0.389581
vn -0.568017 -0.296857 0.767615
vn -0.531505 -0.148839 0.833876
vn -0.870355 -0.190631 0.454029
vn -0.400554 -0.890143 -0.217259
vn -0.671802 -0.731639 -0.115701
vn 0.212663 0.487124 -0.847045
vn 0.201505 0.255906 -0.945467
vn 0.211249 0.022259 -0.977179
vn -0.203954 0.150503 0.967342
vn -0.217722 0.024538 0.975702
vn 0.352109 0.924761 0.144348
vn 0.363956 0.930028 -0.050837
vn 0.358204 0.894956 -0.265975
vn 0.261486 -0.615779 -0.743264
vn 0.316805 -0.752632 -0.577217
vn 0.422008 -0.603790 -0.676274
vn 0.529834 -0.670862 -0.518863
vn 0.370027 -0.907316 0.199645
vn 0.678817 -0.708217 0.193999
vn 0.595075 -0.536794 0.598112
vn 0.348072 -0.538824 0.767147
vn 0.301728 0.744343 -0.595747
vn 0.298312 0.781043 0.548619
vn -0.284641 -0.205314 0.936390
vn -0.241755 -0.098439 0.965331
vn 0.208996 -0.198006 -0.957661
vn 0.215757 -0.361203 -0.907183
vn 0.579456 -0.406827 0.706203
vn 0.313709 -0.295793 0.902271
vn -0.003956 -0.264025 0.964508
vn 0.820531 -0.567196 0.070842
vn 0.788294 -0.536062 0.302042
vn 0.823900 -0.564979 -0.044590
vn 0.796145 -0.555319 -0.240363
vn 0.452881 -0.521889 -0.722863
vn 0.662042 -0.542176 -0.517441
vn -0.021042 -0.473598 -0.880490
vn 0.231725 -0.489008 -0.840937
vn -0.266515 -0.486313 -0.832148
vn -0.464200 -0.515149 -0.720513
vn -0.802678 -0.543286 -0.246064
vn -0.661492 -0.531300 -0.529290
vn -0.833299 -0.551462 -0.038763
vn -0.830120 -0.551947 0.079095
vn -0.592646 -0.409109 0.693831
vn -0.796953 -0.522502 0.303078
vn -0.324326 -0.302934 0.896127
s 1
g head geo
f 45/105/1 16/2/2 46/106/3 129/63/4
f 46/106/3 25/23/5 99/107/6 129/63/4
f 99/107/6 26/54/7 90/108/8 129/63/4
f 90/108/8 13/1/9 45/105/1 129/63/4
f 87/109/10 24/52/11 86/110/12 130/64/13
f 86/110/12 8/30/14 60/111/15 130/64/13
f 60/111/15 5/29/16 68/112/17 130/64/13
f 68/112/17 23/51/18 87/109/10 130/64/13
f 49/113/19 27/55/20 100/114/21 131/65/22
f 100/114/21 34/27/23 98/115/24 131/65/22
f 98/115/24 22/49/25 82/116/26 131/65/22
f 82/116/26 6/5/27 49/113/19 131/65/22
f 74/117/28 11/10/29 54/118/30 132/66/31
f 54/118/30 29/59/32 101/119/33 132/66/31
f 101/119/33 33/31/34 97/120/35 132/66/31
f 97/120/35 18/43/36 74/117/28 132/66/31
f 57/121/37 31/36/38 102/122/39 133/67/40
f 102/122/39 32/56/41 96/123/42 133/67/40
f 96/123/42 5/16/16 60/124/15 133/67/40
f 60/124/15 8/13/14 57/121/37 133/67/40
f 79/125/43 20/46/44 78/126/45 134/68/46
f 78/126/45 10/15/47 58/127/48 134/68/46
f 58/127/48 12/32/49 71/128/50 134/68/46
f 71/128/50 19/45/51 79/125/43 134/68/46
f 61/129/52 1/8/53 92/130/54 135/69/55
f 92/130/54 28/57/56 103/131/57 135/69/55
f 103/131/57 26/54/7 48/132/58 135/69/55
f 48/132/58 2/4/59 61/129/52 135/69/55
f 82/133/26 22/50/25 85/134/60 136/70/61
f 85/134/60 23/51/18 68/112/17 136/70/61
f 68/112/17 5/29/16 66/135/62 136/70/61
f 66/135/62 6/22/27 82/133/26 136/70/61
f 64/136/63 3/20/64 89/137/65 137/71/66
f 89/137/65 25/53/5 104/138/67 137/71/66
f 104/138/67 30/61/68 56/139/69 137/71/66
f 56/139/69 4/12/70 64/136/63 137/71/66
f 86/110/12 24/52/11 88/140/71 138/72/72
f 88/140/71 17/41/73 55/141/74 138/72/72
f 55/141/74 7/11/75 69/142/76 138/72/72
f 69/142/76 8/30/14 86/110/12 138/72/72
f 66/143/62 5/16/16 96/123/42 139/73/77
f 96/123/42 32/56/41 105/144/78 139/73/77
f 105/144/78 27/55/20 49/113/19 139/73/77
f 49/113/19 6/5/27 66/143/62 139/73/77
f 69/142/76 7/11/75 93/145/79 140/74/80
f 93/145/79 29/59/32 106/146/81 140/74/80
f 106/146/81 31/58/38 57/147/37 140/74/80
f 57/147/37 8/30/14 69/142/76 140/74/80
f 78/126/45 20/46/44 81/148/82 141/75/83
f 81/148/82 21/48/84 50/149/85 141/75/83
f 50/149/85 9/28/86 67/150/87 141/75/83
f 67/150/87 10/15/47 78/126/45 141/75/83
f 74/117/28 18/43/36 77/151/88 142/76/89
f 77/151/88 19/45/51 71/128/50 142/76/89
f 71/128/50 12/32/49 70/152/90 142/76/89
f 70/152/90 11/10/29 74/117/28 142/76/89
f 110/153/91 18/43/36 97/120/35 143/77/92
f 97/120/35 33/31/34 107/154/93 143/77/92
f 107/154/93 35/18/94 111/155/95 143/77/92
f 111/155/95 36/17/96 110/153/91 143/77/92
f 77/151/88 18/43/36 110/153/91 144/78/97
f 110/153/91 36/17/96 113/156/98 144/78/97
f 113/156/98 37/24/99 76/157/100 144/78/97
f 76/157/100 19/45/51 77/151/88 144/78/97
f 79/125/43 19/45/51 76/157/100 145/79/101
f 76/157/100 37/24/99 115/158/102 145/79/101
f 115/158/102 38/35/103 114/159/104 145/79/101
f 114/159/104 20/46/44 79/125/43 145/79/101
f 81/148/82 20/46/44 114/159/104 146/80/105
f 114/159/104 38/35/103 117/160/106 146/80/105
f 117/160/106 39/62/107 80/161/108 146/80/105
f 80/161/108 21/48/84 81/148/82 146/80/105
f 98/115/24 34/27/23 108/162/109 147/81/110
f 108/162/109 40/44/111 121/163/112 147/81/110
f 121/163/112 41/42/113 120/164/114 147/81/110
f 120/164/114 22/49/25 98/115/24 147/81/110
f 123/165/115 42/37/116 84/166/117 148/82/118
f 84/166/117 23/51/18 85/134/60 148/82/118
f 85/134/60 22/50/25 120/167/114 148/82/118
f 120/167/114 41/38/113 123/165/115 148/82/118
f 124/168/119 24/52/11 87/109/10 149/83/120
f 87/109/10 23/51/18 84/166/117 149/83/120
f 84/166/117 42/37/116 125/169/121 149/83/120
f 125/169/121 43/25/122 124/168/119 149/83/120
f 127/170/123 44/26/124 73/171/125 150/84/126
f 73/171/125 17/41/73 88/140/71 150/84/126
f 88/140/71 24/52/11 124/168/119 150/84/126
f 124/168/119 43/25/122 127/170/123 150/84/126
f 99/107/6 25/23/5 89/172/65 151/85/127
f 89/172/65 3/3/64 47/173/128 151/85/127
f 47/173/128 2/4/59 48/132/58 151/85/127
f 48/132/58 26/54/7 99/107/6 151/85/127
f 100/114/21 27/55/20 91/174/129 152/86/130
f 91/174/129 9/6/86 50/175/85 152/86/130
f 50/175/85 21/47/84 83/176/131 152/86/130
f 83/176/131 34/27/23 100/114/21 152/86/130
f 101/119/33 29/59/32 93/145/79 153/87/132
f 93/145/79 7/11/75 55/141/74 153/87/132
f 55/141/74 17/41/73 75/177/133 153/87/132
f 75/177/133 33/31/34 101/119/33 153/87/132
f 102/122/39 31/36/38 95/178/134 154/88/135
f 95/178/134 12/14/49 58/179/48 154/88/135
f 58/179/48 10/33/47 59/180/136 154/88/135
f 59/180/136 32/56/41 102/122/39 154/88/135
f 103/131/57 28/57/56 51/181/137 155/89/138
f 51/181/137 14/7/139 62/182/140 155/89/138
f 62/182/140 13/1/9 90/108/8 155/89/138
f 90/108/8 26/54/7 103/131/57 155/89/138
f 104/138/67 25/53/5 46/183/3 156/90/141
f 46/183/3 16/40/2 65/184/142 156/90/141
f 65/184/142 15/9/143 94/185/144 156/90/141
f 94/185/144 30/61/68 104/138/67 156/90/141
f 105/144/78 32/56/41 59/180/136 157/91/145
f 59/180/136 10/33/47 67/186/87 157/91/145
f 67/186/87 9/6/86 91/174/129 157/91/145
f 91/174/129 27/55/20 105/144/78 157/91/145
f 106/146/81 29/59/32 54/118/30 158/92/146
f 54/118/30 11/10/29 70/152/90 158/92/146
f 70/152/90 12/32/49 95/187/134 158/92/146
f 95/187/134 31/58/38 106/146/81 158/92/146
f 128/188/147 35/18/94 107/154/93 159/93/148
f 107/154/93 33/31/34 75/177/133 159/93/148
f 75/177/133 17/41/73 73/171/125 159/93/148
f 73/171/125 44/26/124 128/188/147 159/93/148
f 108/162/109 34/27/23 83/176/131 160/94/149
f 83/176/131 21/47/84 80/189/108 160/94/149
f 80/189/108 39/60/107 119/190/150 160/94/149
f 119/190/150 40/44/111 108/162/109 160/94/149
f 53/191/151 36/17/96 111/155/95 161/95/152
f 111/155/95 35/18/94 109/192/153 161/95/152
f 109/192/153 30/61/68 94/185/144 161/95/152
f 94/185/144 15/9/143 53/191/151 161/95/152
f 112/193/154 37/24/99 113/156/98 162/96/155
f 113/156/98 36/17/96 53/191/151 162/96/155
f 53/191/151 15/9/143 65/184/142 162/96/155
f 65/184/142 16/40/2 112/193/154 162/96/155
f 115/158/102 37/24/99 112/193/154 163/97/156
f 112/193/154 16/40/2 45/194/1 163/97/156
f 45/194/1 13/39/9 72/195/157 163/97/156
f 72/195/157 38/35/103 115/158/102 163/97/156
f 116/196/158 39/62/107 117/160/106 164/98/159
f 117/160/106 38/35/103 72/195/157 164/98/159
f 72/195/157 13/39/9 62/197/140 164/98/159
f 62/197/140 14/34/139 116/196/158 164/98/159
f 118/198/160 40/44/111 119/190/150 165/99/161
f 119/190/150 39/60/107 116/199/158 165/99/161
f 116/199/158 14/7/139 51/181/137 165/99/161
f 51/181/137 28/57/56 118/198/160 165/99/161
f 121/163/112 40/44/111 118/198/160 166/100/162
f 118/198/160 28/57/56 92/130/54 166/100/162
f 92/130/54 1/8/53 52/200/163 166/100/162
f 52/200/163 41/42/113 121/163/112 166/100/162
f 122/201/164 42/37/116 123/165/115 167/101/165
f 123/165/115 41/38/113 52/202/163 167/101/165
f 52/202/163 1/21/53 61/203/52 167/101/165
f 61/203/52 2/19/59 122/201/164 167/101/165
f 125/169/121 42/37/116 122/201/164 168/102/166
f 122/201/164 2/19/59 47/204/128 168/102/166
f 47/204/128 3/20/64 63/205/167 168/102/166
f 63/205/167 43/25/122 125/169/121 168/102/166
f 126/206/168 44/26/124 127/170/123 169/103/169
f 127/170/123 43/25/122 63/205/167 169/103/169
f 63/205/167 3/20/64 64/136/63 169/103/169
f 64/136/63 4/12/70 126/206/168 169/103/169
f 109/192/153 35/18/94 128/188/147 170/104/170
f 128/188/147 44/26/124 126/206/168 170/104/170
f 126/206/168 4/12/70 56/139/69 170/104/170
f 56/139/69 30/61/68 109/192/153 170/104/170
