# This file uses centimeters as units for non-parametric coordinates.

v -3.581214 144.844070 8.644336
v -0.014623 143.652100 9.745482
v 3.539951 144.753937 8.733131
v -7.100024 153.857758 10.097569
v 0.040732 153.655548 11.638985
v 7.389499 153.788040 10.065322
v -7.279715 157.356415 10.278135
v 0.048290 157.364868 11.709641
v 7.629508 157.294556 10.289400
v -6.190007 163.806641 9.694426
v 0.046176 165.231903 10.614857
v 6.482010 163.859756 9.718872
v -6.978916 164.346283 2.510761
v 0.037304 165.895203 2.435946
v 7.135476 164.407455 2.484550
v -5.550209 163.822449 -5.357928
v 0.024375 164.949402 -6.224222
v 5.648208 163.921936 -5.507129
v -6.539359 158.346680 -6.187720
v 0.040575 158.490799 -7.565479
v 6.736516 158.398697 -6.444454
v -6.564216 155.138229 -5.938443
v 0.033498 155.278458 -7.297809
v 6.735440 155.137512 -6.159111
v -4.598231 147.805023 -3.494068
v 0.019205 146.967285 -4.508623
v 4.655073 147.708740 -3.613950
v -4.619294 146.707870 2.884763
v -0.009876 145.229492 3.011541
v 4.544069 146.487320 2.927084
v 8.867355 154.388718 2.392739
v 8.991574 157.414047 2.385529
v -8.682976 154.466904 2.480048
v -8.768283 157.459213 2.506809
vt 0.375000 0.000000
vt 0.500000 0.000000
vt 0.625000 0.000000
vt 0.375000 0.083333
vt 0.500000 0.083333
vt 0.625000 0.083333
vt 0.375000 0.166667
vt 0.500000 0.166667
vt 0.625000 0.166667
vt 0.375000 0.250000
vt 0.500000 0.250000
vt 0.625000 0.250000
vt 0.375000 0.375000
vt 0.500000 0.375000
vt 0.625000 0.375000
vt 0.375000 0.500000
vt 0.500000 0.500000
vt 0.625000 0.500000
vt 0.375000 0.583333
vt 0.500000 0.583333
vt 0.625000 0.583333
vt 0.375000 0.666667
vt 0.500000 0.666667
vt 0.625000 0.666667
vt 0.375000 0.750000
vt 0.500000 0.750000
vt 0.625000 0.750000
vt 0.375000 0.875000
vt 0.500000 0.875000
vt 0.625000 0.875000
vt 0.375000 1.000000
vt 0.500000 1.000000
vt 0.625000 1.000000
vt 0.875000 0.000000
vt 0.750000 0.000000
vt 0.875000 0.083333
vt 0.750000 0.083333
vt 0.875000 0.166667
vt 0.750000 0.166667
vt 0.875000 0.250000
vt 0.750000 0.250000
vt 0.125000 0.000000
vt 0.250000 0.000000
vt 0.125000 0.083333
vt 0.250000 0.083333
vt 0.125000 0.166667
vt 0.250000 0.166667
vt 0.125000 0.250000
vt 0.250000 0.250000
vn -0.260172 -0.213117 0.941749
vn -0.003661 -0.219295 0.975652
vn -0.002322 -0.160203 0.987081
vn -0.237507 -0.143309 0.960756
vn 0.248135 -0.211092 0.945447
vn 0.227672 -0.143673 0.963080
vn 0.000103 0.068991 0.997617
vn -0.190187 0.067039 0.979456
vn 0.183183 0.063204 0.981045
vn 0.000192 0.129418 0.991590
vn -0.182570 0.128151 0.974805
vn 0.174387 0.126569 0.976509
vn -0.223456 0.970768 0.087617
vn -0.003229 0.996064 0.088575
vn -0.005018 0.999941 -0.009679
vn -0.219963 0.975487 -0.006429
vn 0.211104 0.973732 0.085334
vn 0.206068 0.978524 -0.005258
vn -0.004725 0.994414 -0.105448
vn -0.214222 0.971158 -0.104697
vn 0.198833 0.974742 -0.101698
vn -0.197497 0.191015 -0.961514
vn -0.016305 0.198156 -0.980035
vn -0.016480 0.096522 -0.995194
vn -0.200706 0.084467 -0.976003
vn 0.162268 0.198761 -0.966521
vn 0.164677 0.086366 -0.982559
vn -0.015231 -0.258364 -0.965928
vn -0.201151 -0.077618 -0.976480
vn 0.178363 -0.253928 -0.950635
vn -0.215029 -0.333851 -0.917772
vn -0.014404 -0.342477 -0.939416
vn -0.215029 -0.333851 -0.917772
vn 0.183462 -0.337338 -0.923334
vn -0.256362 -0.946900 -0.194062
vn -0.013617 -0.979238 -0.202257
vn -0.015820 -0.975363 -0.220039
vn -0.261563 -0.942103 -0.209824
vn 0.225030 -0.953916 -0.198512
vn 0.232099 -0.949664 -0.210403
vn -0.012913 -0.970660 -0.240111
vn -0.269721 -0.933846 -0.234909
vn 0.243260 -0.942479 -0.229257
vn 0.903169 -0.428982 -0.016119
vn 0.895893 -0.409052 -0.173356
vn 0.895893 -0.409052 -0.173356
vn 0.903518 -0.425449 -0.051455
vn 0.895359 -0.436296 0.089321
vn 0.895359 -0.436296 0.089321
vn 0.998325 -0.046984 -0.033762
vn 0.968401 -0.030818 -0.247486
vn 0.962816 0.157936 -0.219183
vn 0.989885 0.136374 -0.039113
vn 0.982463 -0.060638 0.176321
vn 0.980166 0.126813 0.152290
vn 0.949057 0.240147 -0.204012
vn 0.971676 0.233219 -0.038135
vn 0.965929 0.218787 0.138248
vn -0.901885 -0.393828 -0.177488
vn -0.911847 -0.410371 -0.011447
vn -0.911871 -0.407846 -0.046398
vn -0.901885 -0.393828 -0.177488
vn -0.904234 -0.415058 0.100441
vn -0.904234 -0.415058 0.100441
vn -0.968647 -0.018334 -0.247763
vn -0.999119 -0.033218 -0.025652
vn -0.990354 0.135548 -0.028752
vn -0.963560 0.152296 -0.219907
vn -0.980019 -0.046189 0.193468
vn -0.977102 0.127973 0.169983
vn -0.973832 0.225230 -0.030377
vn -0.951850 0.227764 -0.205195
vn -0.964089 0.214898 0.156051
f 1/1/1 2/2/2 5/5/3 4/4/4
f 2/2/2 3/3/5 6/6/6 5/5/3
f 4/4/4 5/5/3 8/8/7 7/7/8
f 5/5/3 6/6/6 9/9/9 8/8/7
f 7/7/8 8/8/7 11/11/10 10/10/11
f 8/8/7 9/9/9 12/12/12 11/11/10
f 10/10/13 11/11/14 14/14/15 13/13/16
f 11/11/14 12/12/17 15/15/18 14/14/15
f 13/13/16 14/14/15 17/17/19 16/16/20
f 14/14/15 15/15/18 18/18/21 17/17/19
f 16/16/22 17/17/23 20/20/24 19/19/25
f 17/17/23 18/18/26 21/21/27 20/20/24
f 19/19/25 20/20/24 23/23/28 22/22/29
f 20/20/24 21/21/27 24/24/30 23/23/28
f 22/22/31 23/23/28 26/26/32 25/25/33
f 23/23/28 24/24/30 27/27/34 26/26/32
f 25/25/35 26/26/36 29/29/37 28/28/38
f 26/26/36 27/27/39 30/30/40 29/29/37
f 28/28/38 29/29/37 2/32/41 1/31/42
f 29/29/37 30/30/40 3/33/43 2/32/41
f 30/35/44 27/34/45 24/36/46 31/37/47
f 3/3/48 30/35/44 31/37/47 6/6/49
f 31/37/50 24/36/51 21/38/52 32/39/53
f 6/6/54 31/37/50 32/39/53 9/9/55
f 32/39/53 21/38/52 18/40/56 15/41/57
f 9/9/55 32/39/53 15/41/57 12/12/58
f 25/42/59 28/43/60 33/45/61 22/44/62
f 28/43/60 1/1/63 4/4/64 33/45/61
f 22/44/65 33/45/66 34/47/67 19/46/68
f 33/45/66 4/4/69 7/7/70 34/47/67
f 19/46/68 34/47/67 13/49/71 16/48/72
f 34/47/67 7/7/70 10/10/73 13/49/71
